<svg id="Layer_1" data-name="Layer 1" xmlns="http://www.w3.org/2000/svg" viewBox="0 0 240 240"><defs><style>.cls-1{fill:#f8991d;}.cls-1,.cls-2{stroke:#231f20;stroke-linecap:round;stroke-linejoin:round;stroke-width:8px;}.cls-2{fill:none;}.cls-3{font-size:60px;font-family:AmazonEmber-Bold, Amazon Ember;font-weight:700;}.cls-3,.cls-4{fill:#231f20;}</style></defs><title>compensation_uk_small</title><rect class="cls-1" x="20" y="60.98" width="160" height="80" rx="5" ry="5"/><path class="cls-2" d="M190,81h5a5,5,0,0,1,5,5v70a5,5,0,0,1-5,5H45a5,5,0,0,1-5-5v-5"/><path class="cls-2" d="M210,101h5a5,5,0,0,1,5,5v70a5,5,0,0,1-5,5H65a5,5,0,0,1-5-5v-5"/><text class="cls-3" transform="translate(82.42 121.48)">£</text><path class="cls-4" d="M170,123a2,2,0,0,1-1.41-.59,1.88,1.88,0,0,1-.44-.64A2,2,0,0,1,168,121a2,2,0,0,1,.59-1.41,1.81,1.81,0,0,1,.3-.25,2.27,2.27,0,0,1,.34-.19,2.72,2.72,0,0,1,.38-.11,2,2,0,0,1,1.8.55A2,2,0,0,1,172,121a2,2,0,0,1-.15.77,1.88,1.88,0,0,1-.44.64A2,2,0,0,1,170,123Z"/><path class="cls-4" d="M170,133a2,2,0,0,1-1.42-.59A2,2,0,0,1,168,131a1.72,1.72,0,0,1,0-.39,1.58,1.58,0,0,1,.11-.37,1.48,1.48,0,0,1,.19-.35,1.76,1.76,0,0,1,.24-.3,2.07,2.07,0,0,1,2.84,0,1.76,1.76,0,0,1,.24.3,2,2,0,0,1,.19.35,1.58,1.58,0,0,1,.11.37,1.72,1.72,0,0,1,0,.39,2,2,0,0,1-.58,1.41A2,2,0,0,1,170,133Z"/><path class="cls-4" d="M160,133a2,2,0,0,1-.77-.15,1.88,1.88,0,0,1-.64-.44A2,2,0,0,1,158,131a1.72,1.72,0,0,1,0-.39,1.58,1.58,0,0,1,.11-.37,2,2,0,0,1,.19-.35,1.42,1.42,0,0,1,.25-.3,2,2,0,0,1,2.82,0,1.42,1.42,0,0,1,.25.3,2,2,0,0,1,.19.35,1.58,1.58,0,0,1,.11.37,1.72,1.72,0,0,1,0,.39,2.2,2.2,0,0,1-.15.77,1.63,1.63,0,0,1-.19.34,1.42,1.42,0,0,1-.25.3A2,2,0,0,1,160,133Z"/><path class="cls-4" d="M170,83a2,2,0,0,1-2-2,1.72,1.72,0,0,1,0-.39,1.58,1.58,0,0,1,.11-.37,2.37,2.37,0,0,1,.19-.35,1.42,1.42,0,0,1,.25-.3,2,2,0,0,1,2.82,0,1.42,1.42,0,0,1,.25.3,1.7,1.7,0,0,1,.19.35,1.58,1.58,0,0,1,.11.37,1.72,1.72,0,0,1,0,.39,2,2,0,0,1-.59,1.41,1.87,1.87,0,0,1-.3.26,2.21,2.21,0,0,1-.34.18,1.66,1.66,0,0,1-.38.11A1.72,1.72,0,0,1,170,83Z"/><path class="cls-4" d="M170,73a2,2,0,0,1-1.42-.59A2,2,0,0,1,168,71a1.72,1.72,0,0,1,0-.39,2.26,2.26,0,0,1,.11-.37,2.37,2.37,0,0,1,.19-.35,1.76,1.76,0,0,1,.24-.3,2,2,0,0,1,1.81-.55,2.26,2.26,0,0,1,.37.11,2,2,0,0,1,.35.19,1.42,1.42,0,0,1,.3.25A2,2,0,0,1,170,73Z"/><path class="cls-4" d="M160,73a2,2,0,0,1-1.42-.59,2,2,0,0,1,0-2.82,1.79,1.79,0,0,1,.31-.25,2,2,0,0,1,.35-.19,2.26,2.26,0,0,1,.37-.11,2,2,0,0,1,.78,0,2.72,2.72,0,0,1,.38.11,2.27,2.27,0,0,1,.34.19,1.42,1.42,0,0,1,.3.25A2,2,0,0,1,160,73Z"/><path class="cls-4" d="M30,123a2,2,0,0,1-1.41-3.41,1.81,1.81,0,0,1,.3-.25,2.27,2.27,0,0,1,.34-.19,2.72,2.72,0,0,1,.38-.11,2,2,0,0,1,1.8.55A2,2,0,0,1,32,121a2,2,0,0,1-.15.77,1.88,1.88,0,0,1-.44.64A2,2,0,0,1,30,123Z"/><path class="cls-4" d="M30,133a1.72,1.72,0,0,1-.39,0,1.66,1.66,0,0,1-.38-.11,1.63,1.63,0,0,1-.34-.19,1.79,1.79,0,0,1-.31-.25A2,2,0,0,1,28,131a1.72,1.72,0,0,1,0-.39,1.58,1.58,0,0,1,.11-.37,1.48,1.48,0,0,1,.19-.35,1.76,1.76,0,0,1,.24-.3,1.79,1.79,0,0,1,.31-.25,2.27,2.27,0,0,1,.34-.19,2.72,2.72,0,0,1,.38-.11,2,2,0,0,1,1.81.55,1.76,1.76,0,0,1,.24.3,1.48,1.48,0,0,1,.19.35,1.58,1.58,0,0,1,.11.37,1.72,1.72,0,0,1,0,.39,2,2,0,0,1-.58,1.41A2,2,0,0,1,30,133Z"/><path class="cls-4" d="M40,133a2,2,0,0,1-1.41-.59,1.42,1.42,0,0,1-.25-.3,1.63,1.63,0,0,1-.19-.34A2.2,2.2,0,0,1,38,131a1.72,1.72,0,0,1,0-.39,1.58,1.58,0,0,1,.11-.37,2,2,0,0,1,.19-.35,1.42,1.42,0,0,1,.25-.3,2,2,0,0,1,2.82,0,1.42,1.42,0,0,1,.25.3,1.48,1.48,0,0,1,.19.35,1.58,1.58,0,0,1,.11.37,1.72,1.72,0,0,1,0,.39,2,2,0,0,1-.59,1.41,1.88,1.88,0,0,1-.64.44A2,2,0,0,1,40,133Z"/><path class="cls-4" d="M30,83a2,2,0,0,1-2-2,1.72,1.72,0,0,1,0-.39,1.58,1.58,0,0,1,.11-.37,2.37,2.37,0,0,1,.19-.35,1.42,1.42,0,0,1,.25-.3,2,2,0,0,1,2.82,0,1.42,1.42,0,0,1,.25.3,1.7,1.7,0,0,1,.19.35,1.58,1.58,0,0,1,.11.37A1.72,1.72,0,0,1,32,81a2,2,0,0,1-.59,1.41,1.87,1.87,0,0,1-.3.26,2.21,2.21,0,0,1-.34.18,1.66,1.66,0,0,1-.38.11A1.72,1.72,0,0,1,30,83Z"/><path class="cls-4" d="M30,73a2,2,0,1,1,.39-4,2.72,2.72,0,0,1,.38.11,2.27,2.27,0,0,1,.34.19,1.42,1.42,0,0,1,.3.25A2,2,0,0,1,32,71a2,2,0,0,1-.15.77,1.88,1.88,0,0,1-.44.64A2,2,0,0,1,30,73Z"/><path class="cls-4" d="M40,73a2,2,0,0,1-1.41-3.41,1.42,1.42,0,0,1,.3-.25,2.27,2.27,0,0,1,.34-.19,2.72,2.72,0,0,1,.38-.11,2,2,0,0,1,.78,0,2.72,2.72,0,0,1,.38.11,2.27,2.27,0,0,1,.34.19,2.16,2.16,0,0,1,.55.55,2.37,2.37,0,0,1,.19.35,2.26,2.26,0,0,1,.11.37A1.72,1.72,0,0,1,42,71a2,2,0,0,1-.15.77,2.31,2.31,0,0,1-.74.9,2.79,2.79,0,0,1-.34.18,1.66,1.66,0,0,1-.38.11A1.72,1.72,0,0,1,40,73Z"/></svg>